<svg xmlns="http://www.w3.org/2000/svg" style="display: none;">

	<!-- QUESTION-ANSWER -->
	<symbol id="question-answer" viewBox="0 0 24 24" xmlns="http://www.w3.org/2000/svg">
    <path d="M0 0h24v24H0z" fill="none"/>
    <path d="M21 6h-2v9H6v2c0 .55.45 1 1 1h11l4 4V7c0-.55-.45-1-1-1zm-4 6V3c0-.55-.45-1-1-1H3c-.55 0-1 .45-1 1v14l4-4h10c.55 0 1-.45 1-1z"/>
	</symbol>

	<!-- DELETE -->
	<symbol id="delete" viewBox="0 0 24 24" xmlns="http://www.w3.org/2000/svg">
    <path d="M6 19c0 1.1.9 2 2 2h8c1.1 0 2-.9 2-2V7H6v12zM19 4h-3.5l-1-1h-5l-1 1H5v2h14V4z"/>
    <path d="M0 0h24v24H0z" fill="none"/>
	</symbol>

	<!-- ADD-BOX -->
	<symbol id="add-box" viewBox="0 0 24 24" xmlns="http://www.w3.org/2000/svg">
    <path d="M19 3H5c-1.11 0-2 .9-2 2v14c0 1.1.89 2 2 2h14c1.1 0 2-.9 2-2V5c0-1.1-.9-2-2-2zm-2 10h-4v4h-2v-4H7v-2h4V7h2v4h4v2z"/>
    <path d="M0 0h24v24H0z" fill="none"/>
	</symbol>

</svg>